<svg id="Layer_3" data-name="Layer 3" xmlns="http://www.w3.org/2000/svg" viewBox="0 0 290 122"><defs><style>.cls-1{fill:#fff;}</style></defs><title>tech icons</title><path d="M106,100.34a8,8,0,0,1-3.3-.67,6.2,6.2,0,0,1-2.5-2H100a24.83,24.83,0,0,1,.2,3.07v7.61h-2.8V81.52h2.28L100.1,84h0.14a6.5,6.5,0,0,1,2.51-2.19,7.64,7.64,0,0,1,3.29-.67,6.83,6.83,0,0,1,5.68,2.51,11.07,11.07,0,0,1,2,7.05q0,4.55-2,7.08A6.84,6.84,0,0,1,106,100.34Zm-0.4-16.78a5,5,0,0,0-4.1,1.57q-1.27,1.57-1.3,5v0.62q0,3.9,1.3,5.58A4.94,4.94,0,0,0,105.7,98a4.33,4.33,0,0,0,3.75-1.94,9.2,9.2,0,0,0,1.36-5.35,8.86,8.86,0,0,0-1.36-5.31A4.47,4.47,0,0,0,105.63,83.56Z"/><path d="M115.67,81.52h3l4,10.54a40.13,40.13,0,0,1,1.65,5.21h0.14q0.22-.86.92-2.94T130,81.52h3l-7.94,21.05A10.5,10.5,0,0,1,122.3,107a5.86,5.86,0,0,1-3.87,1.31,11.28,11.28,0,0,1-2.53-.29v-2.24a9.74,9.74,0,0,0,2.07.2q2.88,0,4.12-3.24l1-2.63Z"/><path d="M142,98a9.13,9.13,0,0,0,1.43-.11,9.23,9.23,0,0,0,1.1-.23v2.14a5.12,5.12,0,0,1-1.34.36,10.09,10.09,0,0,1-1.59.14q-5.36,0-5.36-5.65v-11h-2.65V82.34l2.65-1.16,1.18-3.95H139v4.28h5.36v2.18H139V94.57a3.74,3.74,0,0,0,.79,2.56A2.76,2.76,0,0,0,142,98Z"/><path d="M156,100.34a8.49,8.49,0,0,1-6.47-2.5,9.66,9.66,0,0,1-2.37-6.93,10.72,10.72,0,0,1,2.2-7.1,7.31,7.31,0,0,1,5.91-2.63,7,7,0,0,1,5.5,2.29,8.76,8.76,0,0,1,2,6v1.77H150.08a7.33,7.33,0,0,0,1.64,4.94,5.69,5.69,0,0,0,4.39,1.69,14.89,14.89,0,0,0,5.9-1.25v2.5a14.81,14.81,0,0,1-2.81.92A15.79,15.79,0,0,1,156,100.34Zm-0.76-16.82A4.57,4.57,0,0,0,151.7,85a6.69,6.69,0,0,0-1.56,4h9.66a6.16,6.16,0,0,0-1.18-4.06A4.16,4.16,0,0,0,155.26,83.52Z"/><path d="M179.51,95a4.63,4.63,0,0,1-1.92,4,9,9,0,0,1-5.4,1.4,11.74,11.74,0,0,1-5.73-1.16v-2.6a13.83,13.83,0,0,0,2.86,1.06,11.91,11.91,0,0,0,2.94.39,6.67,6.67,0,0,0,3.37-.7,2.41,2.41,0,0,0,.24-4,14.74,14.74,0,0,0-3.65-1.81,19.79,19.79,0,0,1-3.67-1.68,5,5,0,0,1-1.62-1.63,4.24,4.24,0,0,1-.53-2.18,4.15,4.15,0,0,1,1.84-3.57,8.57,8.57,0,0,1,5-1.31,14.76,14.76,0,0,1,5.84,1.21l-1,2.28a13.4,13.4,0,0,0-5-1.15,5.8,5.8,0,0,0-3,.62,1.93,1.93,0,0,0-1,1.72,2.09,2.09,0,0,0,.38,1.27,3.73,3.73,0,0,0,1.22,1,27.18,27.18,0,0,0,3.24,1.37,12.1,12.1,0,0,1,4.44,2.41A4.25,4.25,0,0,1,179.51,95Z"/><path d="M190,98a9.13,9.13,0,0,0,1.43-.11,9.23,9.23,0,0,0,1.1-.23v2.14a5.12,5.12,0,0,1-1.34.36,10.09,10.09,0,0,1-1.59.14q-5.36,0-5.36-5.65v-11h-2.65V82.34l2.65-1.16,1.18-3.95h1.62v4.28h5.36v2.18h-5.36V94.57a3.74,3.74,0,0,0,.79,2.56A2.76,2.76,0,0,0,190,98Z"/><rect x="126" y="13" width="8" height="54"/><rect x="137" y="13" width="9" height="45"/><rect x="148" y="13" width="9" height="34"/><rect x="160" y="13" width="8" height="25"/><rect x="122.47" y="16.94" width="48.58" height="4.83" rx="1.5" ry="1.5"/><path class="cls-1" d="M169.56,17.36a1.07,1.07,0,0,1,1.07,1.07v1.83a1.07,1.07,0,0,1-1.07,1.07H124a1.07,1.07,0,0,1-1.07-1.07V18.44A1.07,1.07,0,0,1,124,17.36h45.58m0-.86H124A1.93,1.93,0,0,0,122,18.44v1.83A1.93,1.93,0,0,0,124,22.2h45.58a1.93,1.93,0,0,0,1.93-1.93V18.44a1.93,1.93,0,0,0-1.93-1.93h0Z"/></svg>