<svg id="Layer_3" data-name="Layer 3" xmlns="http://www.w3.org/2000/svg" viewBox="10 40 280 75"><title>tech icons</title><path d="M111.38,67.87a5.35,5.35,0,0,0,3.34-3.25c2.73-5.86,5.52-11.69,8.32-17.52,0.53-1.11.76-2.48,2.55-2.47s2,1.42,2.55,2.49c2.79,5.47,5.52,11,8.27,16.46a8.42,8.42,0,0,0,.44.86c0.9,1.38,1.49,3.55,3.56,3s1.43-2.68,1.42-4.17c0-6,.53-12-0.52-17.89a1.65,1.65,0,0,1,.77-2,42.41,42.41,0,0,1,7.22-3.6,0.58,0.58,0,0,1,.17.93c-2.34,2.3-2.09,5.26-2.11,8.15q0,7.63-.06,15.27c0,1.3,0,2.63,1.38,3.38a1.08,1.08,0,0,1,.67,1.56,1.56,1.56,0,0,1-1.63.79c-2.91,0-5.81,0-8.72,0q-4.6,0-9.21-.06c-0.86,0-1.93.2-2-1.13s1-1.15,1.73-1.2c1.74-.13,1.61-0.88,1.12-2.23-0.95-2.61-2.42-4-5.38-3.52a11.26,11.26,0,0,1-3.38,0c-2-.26-2.93.62-3.59,2.38s-1.32,3.29,1.52,3.44a0.91,0.91,0,0,1,.93,1.15,1.19,1.19,0,0,1-1.34,1.12c-2.64-.27-5.32.3-7.94-0.36Q111.42,68.68,111.38,67.87ZM124,59.19c3.54,0,3.54,0,2-3.06a2.26,2.26,0,0,0-.11-0.22c-0.68-1.06-.83-3-2-3s-1.35,1.92-1.87,3C120.53,59.15,120.57,59.17,124,59.19Z"/><path d="M68.62,74.4a4.54,4.54,0,0,1,2.27-3c1.74-1.22,1.2-1.85-.35-2.62a16.82,16.82,0,0,1-7.13-6c-2.7-4.35-2.25-9,1.4-12.57,4-3.88,8.57-6.37,14.34-5.67a9.9,9.9,0,0,1,8.93,10.49c-0.23,7.32-3.86,12-10.93,14.24a2.37,2.37,0,0,0-1.7.83c0.24,0.88,1.1.85,1.71,1.1,4.64,1.88,9.36,3.58,13.92,5.63,2.09,0.94,3.15.42,4-1.41,0.24-.51.54-1,0.83-1.48a1,1,0,0,1,.9-0.68,1,1,0,0,1,.74,1.09c0.54,3-2.38,6.38-5.51,6.36a11.5,11.5,0,0,1-4.9-1.21c-2.77-1.32-5.53-2.67-8.33-3.91C74,73.45,73.63,73.44,68.62,74.4ZM82.85,56.88c0.19-6.52-4.1-8.66-10.67-7.8-3,.39-5,3.23-5,6.26-0.08,4.38,3,6.55,6.15,8.58,3.76,2.45,7.18,1.19,8.84-3A11,11,0,0,0,82.85,56.88Z"/><path d="M209.66,55.09c1.21-.94,2.19-1.77,3.23-2.5,3-2.07,4.46-1.9,6.38,1.13,1,1.6,1.73,1.91,3,.38A4.84,4.84,0,0,1,223.52,53c1.47-.87,2.84-2.61,4.76-1.51,2.22,1.27,4,3.06,4,5.92,0,2.26-.18,4.52-0.35,6.77-0.1,1.35-.17,2.6,1.31,3.31a1,1,0,0,1,.69,1.36,1.4,1.4,0,0,1-1.49,1l-6.54,0a1.19,1.19,0,0,1-1.2-.65,0.91,0.91,0,0,1,.44-1.24c1.42-.69,1.51-2,1.59-3.31,0.13-2.17.15-4.35,0.08-6.53a2.47,2.47,0,0,0-1.8-2.36c-1-.33-1.66.39-2.3,1-2.55,2.48-2.75,8.44-.32,10.92a1.15,1.15,0,0,1,.45,1.25,1.24,1.24,0,0,1-1.28.9l-7,0a1.06,1.06,0,0,1-1.12-.74,1.21,1.21,0,0,1,.52-1.24C215.66,66,216.35,59,215,56.91c-0.85-1.36-1.86-1.63-3.18-.5-2.8,2.38-3.18,8.5-.64,11.3,1,1.09.48,2-.67,2a54.2,54.2,0,0,1-7.49,0,0.88,0.88,0,0,1-.42-1.7c1.61-1,1.55-2.54,1.64-4a22.86,22.86,0,0,0-.66-8.4c-0.26-.84-0.67-1.78.41-2.34,1.46-.76,2.75-2.28,4.56-1.71,1.25,0.4.69,1.81,0.83,2.8A6.22,6.22,0,0,0,209.66,55.09Z"/><path d="M49.12,70.39A30.68,30.68,0,0,1,41.35,69c-2.24-.79-2.64-1.66-1.21-3.56s0.9-3-.46-4.58c-4-4.54-3.51-8.48,1.29-12.16A38.68,38.68,0,0,1,45,46.08a10.1,10.1,0,0,1,10-.62c1.42,0.68,2.77,1,3.73-.75a0.84,0.84,0,0,1,1.17-.53,1,1,0,0,1,.36,1.29,23.38,23.38,0,0,1-2.52,6c-0.7,1.12-1.61.83-2.51,0.28a19.37,19.37,0,0,0-4.61-2.12,7.77,7.77,0,0,0-4.06-.24c-1.8.43-3.49,1.17-3.86,3.2-0.4,2.18.7,3.9,2.24,5.35,0.77,0.72,1.49.35,2.16-.21,1.42-1.19,2.87-2.36,4.24-3.62a3.49,3.49,0,0,1,4-.63c5.21,2,6.74,7.46,3.26,11.82C55.75,68.88,52.89,70.47,49.12,70.39Zm2.54-4.66c1.65,0.05,3.17-.24,3.6-2.11a4.58,4.58,0,0,0-1.7-5c-1.53-1.17-2.84-.53-4.1.61-1.08,1-2.27,1.82-3.37,2.77s-1,1.94.39,2.58A14.32,14.32,0,0,0,51.66,65.74Z"/><path d="M245.77,73.08c1.69,0.08,3.39.11,5.07,0.27s2.3,1.17,1.73,2.71a22.21,22.21,0,0,1-3.3,5.62,0.9,0.9,0,0,1-1.24.41c-0.51-.34-0.23-0.84-0.08-1.3,1-3,.95-3-2.13-3.07a44,44,0,0,0-8,.57c-1.53.25-3.06,0.52-3.77,2.2a0.85,0.85,0,0,1-1.15.59c-0.55-.25-0.37-0.81-0.31-1.28,0.47-3.62,2.58-6.1,5.37-8.27,3.1-2.41,2.9-1.94,1.06-5.44-1.76-3.34-3.48-6.71-5.26-10-0.69-1.28-.46-2,0.94-2.59,1.87-.74,3.67-1.66,5.52-2.46,0.54-.23,1.25-0.74,1.68.12,0.34,0.68-.31,1-0.77,1.31-1.66,1-1.53,2.3-.81,3.75,1.22,2.46,2.48,4.9,3.68,7.37,0.7,1.44,1.34,1.3,2.22.13,2.34-3.11,2.2-5.65-.49-7.48-1-.65-2.41-1-1.69-2.7a4.3,4.3,0,0,1,4.76-1.85c4.21,1.92,5.39,6.14,2.7,10.12-2.38,3.51-5.7,6.14-8.84,8.91-0.76.67-2.3,1.18-2,2.17s1.85,0.3,2.84.4c0.72,0.07,1.45,0,2.18,0V73.08Z"/><path d="M184.45,61.36c-0.08,1-.15,1.93-0.24,2.9-0.12,1.34-.12,2.59,1.36,3.3a1,1,0,0,1,.58,1.41,1.31,1.31,0,0,1-1.31.88q-3.39,0-6.78,0a1.1,1.1,0,0,1-1.18-.67,1.2,1.2,0,0,1,.46-1.26c1.72-1.89,2.55-8.51,1.39-10.74-0.84-1.63-2.1-1.89-3.53-.71-2.82,2.32-3.19,8.65-.63,11.26A1.1,1.1,0,0,1,175,69a1.28,1.28,0,0,1-1.3.9q-3.51,0-7,0a1.05,1.05,0,0,1-1.17-.65,1,1,0,0,1,.49-1.25c1.43-.82,1.52-2.22,1.52-3.59,0-6.21.51-12.44-.48-18.62a2.09,2.09,0,0,1,1.19-2.57c2-1,3.85-2,5.78-3a1,1,0,0,1,1.32,0,0.83,0.83,0,0,1-.28,1.26c-2.12,1.5-2,3.71-2,5.9,0,1.94-.12,3.87-0.15,5.81,0,0.53-.33,1.23.33,1.52s1-.42,1.4-0.72,0.73-.65,1.14-0.89c1.48-.85,2.85-2.56,4.78-1.4,2.12,1.27,3.87,3,4,5.7,0.07,1.37,0,2.74,0,4.12h-0.15Z"/><path d="M111.38,67.87q0,0.81.08,1.62a5.1,5.1,0,0,1-2.55.64c-5.65-.07-11.31-0.12-17-0.18a13.2,13.2,0,0,1-1.45-.07,1.35,1.35,0,0,1-1.47-1,1.13,1.13,0,0,1,1.11-1.32c1.93-.39,2.31-1.78,2.31-3.45,0-4.28,0-8.56,0-12.85,0-1.85-.49-3.34-2.41-4a1.2,1.2,0,0,1-1-1.45,1.36,1.36,0,0,1,1.49-1q5,0,9.94,0a1.2,1.2,0,0,1,1.3.88,1.14,1.14,0,0,1-1,1.4c-2,.51-2.33,2-2.33,3.73,0,4.12-.06,8.24,0,12.36,0,2.66.74,3.28,3.33,3.36,3.47,0.11,6.79,0,7.67-4.41a0.94,0.94,0,0,1,1-.87,1.06,1.06,0,0,1,.86,1.27C111.37,64.32,111.36,66.09,111.38,67.87Z"/><path d="M186.83,62.07c0-4.71,4.5-10.24,8.48-11.13,2-.44,6.08,2.28,6.39,4.25a1.92,1.92,0,0,1-1.32,2.27c-2.22,1-4.39,2-6.62,3-1.31.55-1.4,1.31-.84,2.47,1.27,2.62,3.58,3.37,6.23,2,0.66-.35,1.34-1.24,2.09-0.3s-0.24,1.56-.77,2.2a4.51,4.51,0,0,1-.52.51c-2.41,2.06-5,3.91-8.31,2.42C188.16,68.14,187,65,186.83,62.07Zm7.35-7.15a0.73,0.73,0,0,0-1.25.41,4.06,4.06,0,0,0-.86,2.22c-0.07.48,0.1,1.23,0.67,1,1.2-.58,3-0.65,3.43-1.94C196.46,55.78,195.08,55.24,194.18,54.92Z"/><path d="M150.55,62.24c0.07-5,4.74-10.62,8.62-11.33,1.88-.35,5.79,2.3,6.23,4.18,0.38,1.61-.69,2.17-1.86,2.63s-2.19,1.33-3.16-.23c-0.76-1.21-1.58-3-3.18-2.4s-1.4,2.72-1.35,4.3a9,9,0,0,0,.62,3.06c1.28,3.18,3.54,3.93,6.57,2.32,0.61-.32,1.22-1,1.91-0.23s0,1.46-.56,2c-0.23.23-.45,0.46-0.7,0.67-2.46,2.12-5.09,4.08-8.49,2.41A8.16,8.16,0,0,1,150.55,62.24Z"/></svg>